<?xml version="1.0" encoding="UTF-8" standalone="no"?>
<svg
   xmlns:dc="http://purl.org/dc/elements/1.1/"
   xmlns:cc="http://creativecommons.org/ns#"
   xmlns:rdf="http://www.w3.org/1999/02/22-rdf-syntax-ns#"
   xmlns:svg="http://www.w3.org/2000/svg"
   xmlns="http://www.w3.org/2000/svg"
   xmlns:sodipodi="http://sodipodi.sourceforge.net/DTD/sodipodi-0.dtd"
   xmlns:inkscape="http://www.inkscape.org/namespaces/inkscape"
   viewBox="0 0 227.38 201.73"
   version="1.1"
   id="svg116"
   sodipodi:docname="logosvg.svg"
   inkscape:version="0.92.3 (2405546, 2018-03-11)">
  <metadata
     id="metadata120">
    <rdf:RDF>
      <cc:Work
         rdf:about="">
        <dc:format>image/svg+xml</dc:format>
        <dc:type
           rdf:resource="http://purl.org/dc/dcmitype/StillImage" />
        <dc:title>logosvg</dc:title>
      </cc:Work>
    </rdf:RDF>
  </metadata>
  <sodipodi:namedview
     pagecolor="#ffffff"
     bordercolor="#666666"
     borderopacity="1"
     objecttolerance="10"
     gridtolerance="10"
     guidetolerance="10"
     inkscape:pageopacity="0"
     inkscape:pageshadow="2"
     inkscape:window-width="2560"
     inkscape:window-height="1017"
     id="namedview118"
     showgrid="false"
     inkscape:zoom="4.2036386"
     inkscape:cx="4.7213927"
     inkscape:cy="112.13402"
     inkscape:window-x="-8"
     inkscape:window-y="-8"
     inkscape:window-maximized="1"
     inkscape:current-layer="svg116" />
  <defs
     id="defs12">
    <style
       id="style10">.cls-1{fill:#88705a;}.cls-1,.cls-10,.cls-11,.cls-12,.cls-2,.cls-3,.cls-4,.cls-5,.cls-6,.cls-7,.cls-8,.cls-9{stroke:#231f20;stroke-miterlimit:10;}.cls-1,.cls-2,.cls-3,.cls-5{stroke-width:2px;}.cls-2,.cls-4{fill:#9b775b;}.cls-3{fill:#fff;}.cls-4{stroke-width:1.81px;}.cls-10,.cls-5{fill:#ffd949;}.cls-11,.cls-6,.cls-7,.cls-8,.cls-9{fill:none;}.cls-6,.cls-7,.cls-8,.cls-9{stroke-width:1.03px;}.cls-7{stroke-dasharray:5.89 5.89;}.cls-8{stroke-dasharray:4.68 4.68;}.cls-9{stroke-dasharray:3.53 3.53;}.cls-11{stroke-width:0.78px;}.cls-12{fill:#8cdbed;}</style>
  </defs>
  <title
     id="title14">logosvg</title>
  <g
     id="레이어_2"
     data-name="레이어 2">
    <g
       id="Layer_1"
       data-name="Layer 1">
      <path
         class="cls-1"
         d="M12.53,119.69,44.79,77,33,71.28l-30.82,41a6.37,6.37,0,0,0,1.48,8.87h0A6.37,6.37,0,0,0,12.53,119.69Z"
         id="path16" />
      <path
         class="cls-1"
         d="M21.11,130,57,82.21,45.07,76.7,10.76,122.59c-2.28,3.18-1.81,7.44,1,9.48S18.84,133.16,21.11,130Z"
         id="path18" />
      <path
         class="cls-1"
         d="M69.79,88.17,57.34,82.52,20.49,131.89c-2.45,3.42-2,8,.93,10.06s7.37,1,9.81-2.38Z"
         id="path20" />
      <path
         class="cls-1"
         d="M69.3,89.64,32.45,139c-2.45,3.41-2,7.94.93,10.05h0c2.95,2.11,7.37,1.05,9.81-2.37l38.56-51.4Z"
         id="path22" />
      <path
         class="cls-1"
         d="M83.88,93.32,47,142.69c-2.45,3.42-2,7.95.93,10.06h0c2.95,2.11,7.37,1,9.82-2.38L96.33,99Z"
         id="path24" />
      <path
         class="cls-1"
         d="M116.86,94.13l-4.2,5.62-12.39-5.62L63.41,143.49c-2.44,3.42-2,7.95.93,10.06s7.38,1,9.82-2.37l23.18-30.92L80,143.49c-2.44,3.42-2,7.95.93,10.06s7.38,1,9.82-2.37l38.55-51.4Z"
         id="path26" />
      <path
         class="cls-2"
         d="M45.55,76.36l-15.12,20a6.36,6.36,0,0,1-11.12-5.94A6.55,6.55,0,0,1,20.07,89l5.79-7.69,7.42-9.88Z"
         id="path28" />
      <path
         class="cls-2"
         d="M58,81.39,39,106.67c-2.26,3.18-6.45,4.11-9.31,2.08s-3.31-6.3-1-9.48L45.73,76.43Z"
         id="path30" />
      <path
         class="cls-2"
         d="M71.25,86.75l-22.12,29.5c-2.44,3.42-6.87,4.49-9.81,2.38s-3.38-6.64-.94-10.06l20.13-27Z"
         id="path32" />
      <path
         class="cls-2"
         d="M83.67,93.27l-22.59,30.1a7.92,7.92,0,0,1-6.33,3.46,5.86,5.86,0,0,1-3.47-1.09c-3-2.11-3.39-6.63-.93-10L71.79,87l10.53,4.26Z"
         id="path34" />
      <path
         class="cls-2"
         d="M91.76,105.6,75.68,127.05a8,8,0,0,1-6.36,3.46,5.89,5.89,0,0,1-3.46-1.08c-3-2.11-3.38-6.64-.93-10.06L84,93.8Z"
         id="path36" />
      <path
         class="cls-2"
         d="M99.69,117.67l-7.63,10.19c-2.44,3.42-6.87,4.49-9.82,2.37s-3.37-6.64-.93-10L92,105.9Z"
         id="path38" />
      <path
         class="cls-2"
         d="M101.24,120l-.92,11a5.58,5.58,0,0,1-1.5-.76c-2.94-2.11-3.37-6.64-.93-10l1.85-2.46Z"
         id="path40" />
      <path
         class="cls-1"
         d="M214.85,119.69,182.59,77l11.79-5.73,30.82,41a6.38,6.38,0,0,1-1.48,8.87h0A6.37,6.37,0,0,1,214.85,119.69Z"
         id="path42" />
      <path
         class="cls-1"
         d="M206.27,130,170.38,82.21l11.93-5.51,34.31,45.89c2.27,3.18,1.8,7.44-1,9.48S208.54,133.16,206.27,130Z"
         id="path44" />
      <path
         class="cls-1"
         d="M157.59,88.17,170,82.52l36.86,49.37c2.45,3.42,2,8-.93,10.06s-7.37,1-9.82-2.38Z"
         id="path46" />
      <path
         class="cls-1"
         d="M158.07,89.64,194.93,139c2.45,3.41,2,7.94-.93,10.05h0c-3,2.11-7.37,1.05-9.82-2.37l-38.55-51.4Z"
         id="path48" />
      <path
         class="cls-1"
         d="M143.49,93.32l36.86,49.37c2.44,3.42,2,7.95-.93,10.06h0c-3,2.11-7.37,1-9.82-2.38L131.05,99Z"
         id="path50" />
      <path
         class="cls-1"
         d="M110.52,94.13l4.2,5.62,12.39-5.62L164,143.49c2.44,3.42,2,7.95-.94,10.06s-7.37,1-9.81-2.37L130,120.26l17.35,23.23c2.44,3.42,2,7.95-.93,10.06s-7.38,1-9.82-2.37L98.08,99.78Z"
         id="path52" />
      <path
         class="cls-2"
         d="M181.83,76.36l15.12,20a6.36,6.36,0,0,0,11.12-5.94A6.2,6.2,0,0,0,207.3,89l-5.78-7.69L194.1,71.4Z"
         id="path54" />
      <path
         class="cls-2"
         d="M169.38,81.39l19,25.28c2.27,3.18,6.46,4.11,9.31,2.08s3.32-6.3,1-9.48L181.65,76.43Z"
         id="path56" />
      <path
         class="cls-2"
         d="M156.12,86.75l22.13,29.5c2.44,3.42,6.86,4.49,9.81,2.38s3.38-6.64.93-10.06l-20.13-27Z"
         id="path58" />
      <path
         class="cls-2"
         d="M143.71,93.27l22.58,30.1a8,8,0,0,0,6.34,3.46,5.88,5.88,0,0,0,3.47-1.09c3-2.11,3.38-6.63.93-10L155.59,87l-10.54,4.26Z"
         id="path60" />
      <path
         class="cls-2"
         d="M135.61,105.6l16.09,21.45a8,8,0,0,0,6.36,3.46,5.93,5.93,0,0,0,3.46-1.08c3-2.11,3.38-6.64.93-10.06L143.36,93.8Z"
         id="path62" />
      <path
         class="cls-2"
         d="M127.68,117.67l7.64,10.19c2.44,3.42,6.86,4.49,9.82,2.37s3.37-6.64.93-10L135.41,105.9Z"
         id="path64" />
      <path
         class="cls-2"
         d="M126.14,120l.92,11a5.38,5.38,0,0,0,1.49-.76c2.95-2.11,3.37-6.64.93-10l-1.84-2.46Z"
         id="path66" />
      <path
         class="cls-3"
         d="M139.87,129c-.74,2-1.26,3.13-1.26,3.13-7.75,17.64-24.88,30.19-24.88,30.19s-17.1-12.53-24.86-30.18c0,0-.23-.49-.6-1.42a5,5,0,0,0-.21-.51c-.14-.36-.28-.76-.45-1.21-3-8-9.51-29.9-1.3-50.08a.33.33,0,0,1,0-.13c3.57-8.81,14.49-15.22,27.38-15.22s23.83,6.41,27.4,15.22a.33.33,0,0,1,0,.13C149.38,99.12,142.84,121,139.87,129Z"
         id="path68" />
      <path
         class="cls-1"
         d="M83.51,191.19h0c-4.64-2.41-5.39-10.24-1.67-17.4l16.91-24.58c1.93-3.71,5.48-5.73,7.88-4.48l1.6.83c2.41,1.25,2.79,5.31.87,9l-10.4,28C95,189.71,88.15,193.6,83.51,191.19Z"
         id="path70" />
      <path
         class="cls-2"
         d="M93.44,196.94h0c-4.84-1.95-6.34-9.67-3.33-17.15l14.47-26.1c1.57-3.88,4.9-6.22,7.42-5.21l1.67.67c2.51,1,3.29,5,1.72,8.9l-7.66,28.84C104.72,194.37,98.29,198.89,93.44,196.94Z"
         id="path72" />
      <path
         class="cls-1"
         d="M144.35,191.19h0c4.63-2.41,5.38-10.24,1.66-17.4L129.1,149.21c-1.92-3.71-5.47-5.73-7.88-4.48l-1.59.83c-2.41,1.25-2.8,5.31-.87,9l10.39,28C132.87,189.71,139.71,193.6,144.35,191.19Z"
         id="path74" />
      <path
         class="cls-2"
         d="M134.11,196.94h0c4.85-1.95,6.35-9.67,3.33-17.15L123,153.69c-1.56-3.88-4.9-6.22-7.41-5.21l-1.67.67c-2.52,1-3.29,5-1.73,8.9l7.66,28.84C122.83,194.37,129.26,198.89,134.11,196.94Z"
         id="path76" />
      <path
         class="cls-1"
         d="M113.12,200.73h0c5.22.09,9.6-6.44,9.74-14.51l-3.19-29.66c.07-4.18-2.09-7.64-4.8-7.69l-1.8,0c-2.71,0-5,3.35-5.06,7.53l-4.15,29.54C103.73,194,107.89,200.65,113.12,200.73Z"
         id="path78" />
      <path
         class="cls-4"
         d="M141.17,79.25a.33.33,0,0,0,0-.13c-3.57-9-14.48-15.53-27.4-15.53S89.92,70.13,86.35,79.12a.33.33,0,0,0,0,.13c-8.21,20.59-1.67,43,1.3,51.09.17.46.31.87.45,1.24.09.19.15.36.21.52.37,1,.6,1.45.6,1.45,7.76,18,15,30.79,24.86,30.79s17.13-12.8,24.88-30.8c0,0,.52-1.16,1.26-3.2C142.84,122.19,149.38,99.84,141.17,79.25ZM99.86,108.72c-7.77,0-14.08-7.44-14.08-16.63s6.31-16.63,14.08-16.63c7.23,0,13.18,6.44,14,14.72.81-8.28,6.75-14.72,14-14.72,7.78,0,14.08,7.45,14.08,16.63s-6.3,16.63-14.08,16.63Z"
         id="path80" />
      <circle
         class="cls-5"
         cx="101.23"
         cy="89.64"
         r="2.32"
         id="circle82" />
      <circle
         class="cls-5"
         cx="125.86"
         cy="89.64"
         r="2.32"
         id="circle84" />
      <path
         class="cls-6"
         d="M193,66.64c-.19-.94-.39-1.88-.61-2.81"
         id="path86"
         style="stroke:#fffefe;stroke-opacity:1" />
      <path
         class="cls-7"
         d="M190.81,58.15C180.45,24.73,149.86.52,113.74.52,76.61.52,45.32,26.1,35.85,61"
         id="path88"
         style="stroke:#fffbfc;stroke-opacity:1" />
      <path
         class="cls-6"
         d="M35.12,63.83c-.22.93-.43,1.87-.61,2.81"
         id="path90"
         style="stroke:#ffffff;stroke-opacity:1;stroke-width:1.03;stroke-miterlimit:10;stroke-dasharray:none" />
      <path
         class="cls-6"
         d="M178.23,66.64c-.18-.77-.37-1.54-.58-2.29"
         id="path92"
         style="stroke:#fffbfc;stroke-opacity:1" />
      <path
         class="cls-8"
         d="M176.23,59.89c-9.3-26.08-33.77-44.68-62.49-44.68-29.51,0-54.55,19.66-63.24,46.9"
         id="path94"
         style="stroke:#fffbfc;stroke-opacity:1" />
      <path
         class="cls-6"
         d="M49.83,64.35c-.21.75-.41,1.52-.59,2.29"
         id="path96"
         style="stroke:#fffbfc;stroke-opacity:1" />
      <path
         class="cls-6"
         d="M159.28,66.64q-.28-.81-.6-1.62"
         id="path98"
         style="stroke:#fffbfc;stroke-opacity:1" />
      <path
         class="cls-9"
         d="M157.3,61.77a47.9,47.9,0,0,0-87.45.71c-.14.3-.27.6-.4.91"
         id="path100"
         style="stroke:#fffbfc;stroke-opacity:1" />
      <path
         class="cls-6"
         d="M68.79,65c-.2.54-.4,1.08-.59,1.62"
         id="path102"
         style="stroke:#fffbfc;stroke-opacity:1" />
      <circle
         class="cls-10"
         cx="56.46"
         cy="26.45"
         r="7.22"
         id="circle104"
         style="stroke:#fffbfc;stroke-opacity:1" />
      <ellipse
         class="cls-11"
         cx="56.46"
         cy="26.45"
         rx="2.52"
         ry="13.95"
         transform="translate(27.07 81.44) rotate(-86.97)"
         id="ellipse106"
         style="stroke:#fffbfc;stroke-opacity:1" />
      <circle
         class="cls-12"
         cx="132.96"
         cy="37.24"
         r="5.02"
         id="circle108"
         style="stroke:#fffbfc;stroke-opacity:1" />
      <path
         class="cls-6"
         d="M135.57,33c2.74-.76,4.85-.76,5.3.16s-.74,2.46-2.89,4.07a28.75,28.75,0,0,1-4.39,2.62A35,35,0,0,1,130,41.28c-3.16,1-5.64,1.12-6.13.09s1.24-3.06,4.14-5"
         id="path110"
         style="stroke:#fffbfc;stroke-opacity:1" />
      <polygon
         class="cls-5"
         points="113.74 106.67 110.65 100.47 113.74 97.37 116.84 100.47 113.74 106.67"
         id="polygon112" />
    </g>
  </g>
</svg>
